<svg width="39" height="39" viewBox="0 0 39 39" fill="none" xmlns="http://www.w3.org/2000/svg">
<circle cx="19.4118" cy="19.4118" r="19.0882" stroke="#EC1C4D" stroke-width="0.647059"/>
<g clip-path="url(#clip0_23_6314)">
<path d="M23.1736 15.3359C23.0003 15.3359 22.8594 15.4769 22.8594 15.6501C22.8594 15.8233 23.0003 15.9643 23.1736 15.9643C23.3468 15.9643 23.4877 15.8234 23.4877 15.6501C23.4877 15.4769 23.3468 15.3359 23.1736 15.3359Z" fill="#EC1C4D"/>
<path d="M19.4117 16.6265C17.8759 16.6265 16.6265 17.8759 16.6265 19.4117C16.6265 20.9476 17.8759 22.1971 19.4117 22.1971C20.9476 22.1971 22.1971 20.9476 22.1971 19.4118C22.1971 17.876 20.9476 16.6265 19.4117 16.6265Z" fill="#EC1C4D"/>
<path d="M22.3347 12.9409H16.4888C14.5326 12.9409 12.9412 14.5324 12.9412 16.4886V22.3345C12.9412 24.2907 14.5326 25.8821 16.4888 25.8821H22.3347C24.2909 25.8821 25.8823 24.2906 25.8823 22.3345V16.4886C25.8823 14.5324 24.2909 12.9409 22.3347 12.9409ZM19.4118 22.961C17.4545 22.961 15.8623 21.3687 15.8623 19.4115C15.8623 17.4543 17.4545 15.862 19.4118 15.862C21.369 15.862 22.9613 17.4543 22.9613 19.4115C22.9613 21.3687 21.369 22.961 19.4118 22.961ZM23.1736 16.7281C22.5789 16.7281 22.0951 16.2444 22.0951 15.6497C22.0951 15.0551 22.5789 14.5713 23.1736 14.5713C23.7682 14.5713 24.252 15.0551 24.252 15.6497C24.252 16.2443 23.7682 16.7281 23.1736 16.7281Z" fill="#EC1C4D"/>
</g>
<defs>
<clipPath id="clip0_23_6314">
<rect width="12.9412" height="12.9412" fill="white" transform="translate(12.9412 12.9409)"/>
</clipPath>
</defs>
</svg>
