<svg width="39" height="39" viewBox="0 0 39 39" fill="none" xmlns="http://www.w3.org/2000/svg">
<circle cx="19.5883" cy="19.4118" r="19.0882" fill="white" stroke="#EC1C4D" stroke-width="0.647059"/>
<path d="M17.8489 20.3537C17.7946 20.3537 16.5988 20.3537 16.0553 20.3537C15.7654 20.3537 15.6748 20.245 15.6748 19.9732C15.6748 19.2485 15.6748 18.5057 15.6748 17.781C15.6748 17.4911 15.7835 17.4005 16.0553 17.4005H17.8489C17.8489 17.3461 17.8489 16.2953 17.8489 15.8061C17.8489 15.0814 17.9757 14.393 18.3381 13.7589C18.7186 13.1066 19.2621 12.6718 19.9506 12.4181C20.4035 12.2551 20.8565 12.1826 21.3456 12.1826H23.1212C23.3748 12.1826 23.4835 12.2913 23.4835 12.545V14.6104C23.4835 14.864 23.3748 14.9727 23.1212 14.9727C22.632 14.9727 22.1428 14.9727 21.6536 14.9909C21.1645 14.9909 20.9108 15.2264 20.9108 15.7337C20.8927 16.2772 20.9108 16.8026 20.9108 17.3643H23.0125C23.3023 17.3643 23.411 17.473 23.411 17.7629V19.9551C23.411 20.245 23.3205 20.3356 23.0125 20.3356C22.3602 20.3356 20.9652 20.3356 20.9108 20.3356V26.2419C20.9108 26.5499 20.8202 26.6586 20.4941 26.6586C19.7332 26.6586 18.9903 26.6586 18.2294 26.6586C17.9576 26.6586 17.8489 26.5499 17.8489 26.2781C17.8489 24.3758 17.8489 20.408 17.8489 20.3537Z" fill="#EC1C4D"/>
</svg>
