<svg width="20" height="20" viewBox="0 0 20 20" fill="none" xmlns="http://www.w3.org/2000/svg">
<path fill-rule="evenodd" clip-rule="evenodd" d="M9.262 19.7281C9.262 19.7281 2 13.7354 2 7.83872C2 5.75976 2.84285 3.76595 4.34315 2.29591C5.84344 0.825863 7.87827 0 10 0C12.1217 0 14.1566 0.825863 15.6569 2.29591C17.1571 3.76595 18 5.75976 18 7.83872C18 13.7354 10.738 19.7281 10.738 19.7281C10.334 20.0926 9.669 20.0887 9.262 19.7281ZM10 11.2682C10.4596 11.2682 10.9148 11.1795 11.3394 11.0071C11.764 10.8348 12.1499 10.5821 12.4749 10.2637C12.7999 9.94524 13.0577 9.56719 13.2336 9.15111C13.4095 8.73503 13.5 8.28908 13.5 7.83872C13.5 7.38836 13.4095 6.94241 13.2336 6.52633C13.0577 6.11025 12.7999 5.73219 12.4749 5.41374C12.1499 5.09529 11.764 4.84267 11.3394 4.67033C10.9148 4.49798 10.4596 4.40928 10 4.40928C9.07174 4.40928 8.1815 4.77059 7.52513 5.41374C6.86875 6.05688 6.5 6.92917 6.5 7.83872C6.5 8.74826 6.86875 9.62055 7.52513 10.2637C8.1815 10.9068 9.07174 11.2682 10 11.2682Z" fill="#EC1C4D"/>
</svg>
